#!OML:ASF E:/inclinewalkrobotboard/Project1/Captureday1/Session1/subject1.ASF
:FULLY-SPECIFIED
:DEGREES
213
root 0 0 0 2.818501617276245 -4.221072243709978 2.2480119673530505
lowerback 11.794364049308438 1.1593007666101376 -0.18627788718460647
upperback -4.214511608961656 1.4767192644811868 -0.810176819553785
thorax -11.087276239764645 0.67990074846223 -1.0598442146930087
lowerneck -6.9421031316495005 1.2827947374618296 4.266873965278078
upperneck 19.219022469482482 2.690665218056443 -8.045698219621883
head 7.169537489258606 0.9197613633788336 -3.1298480165234803
rclavicle -9.929234379761126E-16 -7.474763291494176E-16
rhumerus 17.211790027374434 13.095727764211846 -51.29988697771017
rradius 68.72422971443385
rwrist 23.87127477400663
rhand -32.91564103109696 -48.96422302989676
rfingers 7.125019999999962
rthumb -6.18018269672624 -79.03298805359157
lclavicle 1.0366982580648015E-15 8.536277703541882E-16
lhumerus 17.40098837437389 -13.214700603375327 49.40603477745325
lradius 66.83624815357375
lwrist -18.37714740680935
lhand -43.87893926333042 -60.485872776467325
lfingers 7.125019999999955
lthumb -16.71629678421009 -31.02826300720982
rfemur -24.13705602809572 1.7872849346305562 19.15576649695464
rtibia 34.64032316768384
rfoot -25.22609526863955 -15.483820927679943
rtoes -20.771324008875514
lfemur -19.367542399459975 -0.10959888676386054 -15.421220674150556
ltibia 32.26559445625232
lfoot -24.438313477620063 4.113672215406596
ltoes -20.20406459375569
214
root 0 0 0 2.678359369413035 -4.175617749596893 2.355779350664322
lowerback 11.814065909677357 1.1307968207087233 -0.28162830026702856
upperback -4.214951522911636 1.4261282094029033 -0.8228958616607635
thorax -11.106025901602733 0.6578893901014047 -1.0112606230980963
lowerneck -6.903675975764675 1.2849618325481218 4.279054511473242
upperneck 19.405255015565377 2.696443241072604 -8.097160997946112
head 7.226264418204342 0.9177643786381858 -3.1496180166642107
rclavicle -6.838239485749236E-16 -9.417247308762426E-16
rhumerus 16.739083266629024 12.454569192029714 -50.91222145141123
rradius 68.34403983564277
rwrist 24.305816805201424
rhand -32.90076860407514 -49.00556555308356
rfingers 7.125019999999962
rthumb -6.164179615963308 -79.09560614267448
lclavicle 1.071958083437678E-15 5.970946732244775E-16
lhumerus 17.23833285827976 -12.87077243300394 49.292546282918366
lradius 66.62081239338974
lwrist -18.575655675615298
lhand -43.8728468039686 -60.76249083447685
lfingers 7.125019999999955
lthumb -16.71197867976472 -31.30361417546688
rfemur -25.657786030744866 0.6866017159278006 17.60396760284359
rtibia 42.096716974953196
rfoot -20.397299224721685 -14.680230271266279
rtoes -19.177780670183328
lfemur -18.077851281311293 0.3519703906313244 -15.119615547528968
ltibia 37.475532867217424
lfoot -21.01827335147786 1.3049595283215787
ltoes -20.7648868361765
215
root 0 0 0 2.4263746387086615 -4.0945550262448265 2.549180332986195
lowerback 11.89683363344873 1.0733594714663042 -0.45882989783208716
upperback -4.197757508842603 1.3278662106899146 -0.8370846955133847
thorax -11.150783518394844 0.6152141764811878 -0.9112464850426418
lowerneck -6.879168538123771 1.3108364144618048 4.2939487275089165
upperneck 19.544699222482752 2.7374477293972257 -8.161287393943834
head 7.269411646362885 0.9307607334968923 -3.1707691760896166
rclavicle -4.234923111382882E-16 -1.2495520663282516E-15
rhumerus 16.304151280301596 11.845626437399767 -50.51676137467706
rradius 67.99432055448446
rwrist 24.743853151800696
rhand -32.89544304440373 -49.08693058791333
rfingers 7.125019999999963
rthumb -6.158203404162862 -79.20194662627111
lclavicle 1.0446806746913463E-15 2.6640017986805623E-16
lhumerus 17.184517204612163 -12.629259442580711 49.16986950715928
lradius 66.50730419845377
lwrist -18.749414298024
lhand -43.89677400060403 -61.083276153467885
lfingers 7.125019999999955
lthumb -16.736395746638774 -31.62664467244672
rfemur -28.675763645391545 -0.8164214419814049 15.70940713606869
rtibia 51.75367476491942
rfoot -14.788136045617147 -13.858769953011656
rtoes -16.158609378655356
lfemur -16.905357002063205 1.480196531411588 -14.98339699024832
ltibia 46.943949716329236
lfoot -17.153287313815852 -2.511354370805207
ltoes -20.940308518058693
216
root 0 0 0 1.8946065753146817 -3.844023211954455 2.89716542177895
lowerback 12.119521373335937 0.9089618280966754 -0.8160498267871527
upperback -4.122339114527299 1.0683870137102947 -0.8189221936589918
thorax -11.234709184481282 0.4999681154147535 -0.65159888659668
lowerneck -6.950251625293334 1.380698187944599 4.30862191973483
upperneck 19.622360636874582 2.8452756112790203 -8.25480658367418
head 7.3067000532738025 0.970712458342008 -3.196796385959318
rclavicle -3.550493162971349E-16 -1.8100445276047024E-15
rhumerus 15.832611701114699 11.170188932006651 -50.06034669147303
rradius 67.61636152322622
rwrist 25.246857060172438
rhand -32.89617000179309 -49.20722412321377
rfingers 7.125019999999963
rthumb -6.157943553972721 -79.35062669735763
lclavicle 7.430971774996575E-16 -1.9497559787706084E-16
lhumerus 17.296705847996947 -12.576163600726264 49.05135175840212
lradius 66.56275897473468
lwrist -18.860837413266488
lhand -43.96169009589823 -61.426277567704744
lfingers 7.125019999999956
lthumb -16.800330060875794 -31.97615793222958
rfemur -32.834030883459405 -2.213223727779109 14.466222692604774
rtibia 60.39220524233802
rfoot -10.071837185436596 -12.994610200298407
rtoes -11.11147425080553
lfemur -16.321770061438972 3.7424378060916457 -15.28370498317848
ltibia 62.85462593945274
lfoot -10.497334615851075 -8.280327673620082
ltoes -18.095750426087942
